<?xml version="1.0" standalone="no"?>
<!DOCTYPE svg PUBLIC "-//W3C//DTD SVG 20010904//EN"
 "http://www.w3.org/TR/2001/REC-SVG-20010904/DTD/svg10.dtd">
<svg version="1.0" xmlns="http://www.w3.org/2000/svg"
 width="300.000000pt" height="300.000000pt" viewBox="0 0 300.000000 300.000000"
 preserveAspectRatio="xMidYMid meet">
<metadata>
Created by potrace 1.11, written by Peter Selinger 2001-2013
</metadata>
<g transform="translate(0.000000,300.000000) scale(0.100000,-0.100000)"
fill="#000000" stroke="none">
<path d="M1361 2119 c-178 -45 -330 -171 -400 -329 -30 -69 -44 -145 -45 -255
-1 -129 12 -221 60 -422 9 -37 18 -75 21 -83 3 -8 8 -24 10 -34 2 -11 10 -42
18 -70 8 -28 17 -64 21 -81 3 -16 8 -41 11 -55 3 -14 25 -41 48 -60 24 -19 53
-47 64 -62 l21 -27 -43 -30 c-23 -16 -52 -38 -64 -50 -12 -11 -34 -23 -50 -26
-15 -3 -37 -8 -48 -10 -42 -8 -52 -11 -110 -35 -76 -30 -145 -79 -215 -151
-75 -76 -100 -108 -100 -125 0 -8 -5 -14 -12 -14 -6 0 -8 -3 -5 -7 4 -3 1 -13
-6 -22 -13 -15 -47 -113 -54 -154 -3 -16 58 -17 1199 -15 l1203 3 -1 40 c-1
40 -12 156 -18 185 -3 16 -16 95 -19 120 -2 8 -6 21 -10 28 -5 7 -11 24 -13
38 -14 78 -77 153 -161 191 -48 22 -73 27 -172 29 -64 2 -134 -1 -155 -6 -38
-8 -42 -7 -81 33 -61 63 -118 88 -255 111 -14 3 -43 5 -65 6 l-40 1 26 14 c24
13 26 18 23 77 -2 35 -6 83 -9 108 -15 123 -18 184 -20 409 -3 278 -8 344 -31
421 -17 59 -59 146 -78 166 -7 6 -23 25 -37 41 -29 34 -109 85 -161 102 -61
20 -168 20 -247 0z"/>
</g>
</svg>
